<svg width="30" height="35" viewBox="0 0 30 35" fill="none" xmlns="http://www.w3.org/2000/svg">
<path d="M1.10563 33.9841C0.931948 33.7968 0.842219 33.5472 0.857055 33.2927V33.2244C0.886486 32.8422 1.13295 32.5105 1.49134 32.3707C2.43456 31.9537 3.41256 31.6195 4.4142 31.3719C4.90277 31.261 7.3542 30.7488 7.84277 30.6719C8.33134 30.5951 11.1428 30.2878 11.5199 30.2451C11.8971 30.2024 16.4313 29.8354 16.8342 29.8012L20.2113 29.6305C21.1251 29.5873 22.0338 29.4702 22.9285 29.2805C23.3203 29.142 23.7212 29.0308 24.1285 28.9476C24.8275 28.8171 25.5282 29.166 25.8428 29.8012C25.8428 29.8012 26.5713 31.0219 26.1856 31.6963C26.1694 31.7325 26.1493 31.7669 26.1256 31.7988C25.8468 32.227 25.4595 32.5745 25.0028 32.8061C24.7899 32.9356 24.5488 33.0117 24.2999 33.028C23.6097 33.0849 22.9159 33.0849 22.2256 33.028L21.6599 32.9854L18.8571 32.8744C17.4685 32.8146 16.2856 32.7293 15.6256 32.7463C14.9656 32.7634 13.7228 32.7463 12.6428 32.8317C11.5628 32.9171 8.95706 33.1476 8.35706 33.1988C7.75706 33.25 5.66563 33.4549 5.00563 33.5658C4.34563 33.6768 3.19705 33.9244 2.93134 33.9927C2.41754 34.1446 1.8792 34.1968 1.34563 34.1463C1.25655 34.128 1.17383 34.0868 1.10563 34.0268" fill="#1D1D1B"/>
<path d="M15.917 25.439C15.4285 25.439 15.2913 24.8671 15.0085 24.372C14.7256 23.8768 13.5256 21.5293 13.2428 21C12.9599 20.4707 11.3142 17.3037 11.0656 16.911C10.8942 16.6463 9.94275 14.9049 9.35133 13.8634C9.0599 13.3683 8.49418 12.5402 8.12561 11.9939L6.75418 10.1585C6.34275 9.62927 5.51133 8.51098 4.81704 7.59756C4.45057 7.0565 4.53816 6.3296 5.02275 5.89025C5.42409 5.64718 5.88183 5.51189 6.35133 5.49756C6.52377 5.49429 6.69531 5.52325 6.85704 5.58293C7.19046 5.69926 7.50517 5.86316 7.79133 6.06951C8.80318 6.88595 9.69476 7.84 10.4399 8.90366C11.0913 9.75732 12.1542 11.8744 12.5656 12.5488C12.977 13.2232 14.0056 15.7841 14.2285 16.2878C14.4513 16.7915 15.2485 19.0793 15.5828 19.9671C15.917 20.8549 16.3456 22.1524 16.6285 23.211C16.7843 23.6312 16.8542 24.0781 16.8342 24.5256C16.8321 24.6426 16.8089 24.7583 16.7656 24.8671C16.6008 25.1946 16.2753 25.4118 15.9085 25.439" fill="#1D1D1B"/>
<path d="M17.7515 14.0341C17.7515 14.0341 17.5801 14.1024 17.4086 13.761C17.3778 13.6434 17.3778 13.52 17.4086 13.4024C17.7635 11.5827 18.3034 9.80356 19.0201 8.09268C19.5817 6.68733 20.2434 5.3237 21.0001 4.0122C21.8144 2.83415 22.9886 1.16098 23.7344 0.7C24.315 0.249144 25.0295 0.00294448 25.7658 0C26.3065 0.0581637 26.784 0.377318 27.0429 0.853659C27.2067 1.33094 27.1503 1.85592 26.8886 2.2878C26.6238 2.74641 26.25 3.13332 25.8001 3.41463C25.0785 3.82406 24.3829 4.27736 23.7172 4.77195C23.3156 5.15228 22.935 5.55409 22.5772 5.97561L21.7629 6.95732C21.6172 7.12805 21.2829 7.58049 21.1972 7.68293C20.6029 8.53163 20.0756 9.42496 19.6201 10.3549C18.8658 11.9171 18.7629 12.2159 18.2572 13.3341C18.2572 13.3341 18.0344 14.0085 17.7515 14.0598" fill="#1D1D1B"/>
<path d="M19.4743 19.122C19.4743 19.122 19.0286 19.0281 19.0543 18.6781C19.0854 18.4613 19.143 18.2492 19.2257 18.0463C19.5965 16.9263 20.0462 15.8338 20.5714 14.7768C21.7065 12.6622 23.1966 10.7567 24.9772 9.14269C25.7177 8.43065 26.6346 7.92694 27.6343 7.68293C27.8892 7.61057 28.1594 7.61057 28.4143 7.68293C28.867 7.77491 29.2361 8.10026 29.3829 8.53659C29.4398 9.23117 29.0892 9.89612 28.4829 10.2439C28.4829 10.2439 25.3372 12.3951 24.7972 12.8476C24.1378 13.3389 23.5135 13.8751 22.9286 14.4524C22.2193 15.2389 21.5527 16.0624 20.9314 16.9195C20.9314 16.9195 20.4429 17.7732 20.0057 18.5073C19.9175 18.6868 19.8051 18.8534 19.6714 19.0024C19.6241 19.0652 19.5527 19.1054 19.4743 19.1134" fill="#1D1D1B"/>
</svg>
